<?xml version="1.0" encoding="utf-8"?>
<!-- Generator: Adobe Illustrator 21.1.0, SVG Export Plug-In . SVG Version: 6.00 Build 0)  -->
<svg version="1.1" id="Capa_1" xmlns="http://www.w3.org/2000/svg" xmlns:xlink="http://www.w3.org/1999/xlink" x="0px" y="0px"
	 viewBox="0 0 232 22" style="enable-background:new 0 0 232 22;" xml:space="preserve">
<style type="text/css">
	.st0{fill:none;stroke:#C5C3C3;}
	.st1{fill:#575757;}
	.st2{fill:#848484;}
	.st3{fill:#999999;}
</style>
<g>
	<line class="st0" x1="152.8" y1="10" x2="230.6" y2="10"/>
	<path class="st1" d="M137.4,8l3.8-5.6l3.8,5.6H137.4z M135.3,11.2l1.4-2.1h9.2l1.4,2.1h1.8l-6.8-9.8h-1.9l-6.8,9.8H135.3z
		 M120.6,2.5h7.1c1.1,0,1.9,0.1,2.3,0.3c0.4,0.2,0.6,0.6,0.6,1.1v0.9c0,0.5-0.2,0.9-0.6,1.1c-0.4,0.2-1,0.3-1.9,0.3h-7.4V2.5z
		 M120.6,11.2V7.3h7.6c0.8,0,1.4,0.1,1.7,0.3c0.4,0.2,0.6,0.7,0.6,1.4v2.1h1.5V8.7c0-1-0.7-1.6-2-1.8v0c1.4-0.1,2.1-0.7,2.1-1.9V4.2
		c0-1-0.2-1.7-0.7-2.1c-0.5-0.5-1.6-0.7-3.1-0.7h-9.2v9.8H120.6z M116.8,11.2v-1.1h-9.8V6.7h9.3V5.6h-9.3V2.5h9.7V1.4h-11.2v9.8
		H116.8z M97.3,11.2l6.3-9.8h-1.7L96.4,10l-5.5-8.6h-1.7l6.3,9.8H97.3z M88.6,11.2v-1.1h-8.9V1.4h-1.5v9.8H88.6z M61.6,10.4
		c0.6,0.6,1.7,0.9,3.2,0.9h6.6c1.5,0,2.6-0.3,3.2-0.9c0.6-0.6,0.9-1.5,0.9-2.8V4.9c0-1.3-0.3-2.2-0.9-2.8c-0.6-0.6-1.7-0.9-3.2-0.9
		h-6.6c-1.5,0-2.6,0.3-3.2,0.9c-0.6,0.6-0.9,1.5-0.9,2.8v2.7C60.7,8.9,61,9.8,61.6,10.4 M73.1,9.8c-0.4,0.3-1.1,0.4-1.9,0.4h-6.3
		c-0.8,0-1.5-0.1-1.9-0.4c-0.5-0.3-0.8-0.9-0.8-1.7V4.4c0-0.8,0.3-1.3,0.8-1.7c0.4-0.3,1.1-0.4,1.9-0.4h6.3c0.8,0,1.5,0.1,1.9,0.4
		c0.5,0.3,0.8,0.9,0.8,1.7v3.7C73.9,8.9,73.6,9.4,73.1,9.8 M36.8,10.4c0.6,0.6,1.7,0.9,3.2,0.9h6.6c1.5,0,2.6-0.3,3.2-0.9
		c0.6-0.6,0.9-1.5,0.9-2.8V4.9c0-1.3-0.3-2.2-0.9-2.8c-0.6-0.6-1.7-0.9-3.2-0.9H40c-1.5,0-2.6,0.3-3.2,0.9c-0.6,0.6-0.9,1.5-0.9,2.8
		v2.7C35.9,8.9,36.2,9.8,36.8,10.4 M48.3,9.8c-0.4,0.3-1.1,0.4-1.9,0.4h-6.3c-0.8,0-1.5-0.1-1.9-0.4c-0.5-0.3-0.8-0.9-0.8-1.7V4.4
		c0-0.8,0.3-1.3,0.8-1.7c0.4-0.3,1.1-0.4,1.9-0.4h6.3c0.8,0,1.5,0.1,1.9,0.4c0.5,0.3,0.8,0.9,0.8,1.7v3.7
		C49.1,8.9,48.8,9.4,48.3,9.8 M34,11.2v-1.1H23.3l10.5-7.7V1.4H21.2v1.1h10.1l-10.4,7.7v1H34z M18.7,1.4h-1.6v9.8h1.6V1.4z M2.9,2.5
		H10c1.1,0,1.9,0.1,2.3,0.3c0.4,0.2,0.6,0.6,0.6,1.1v0.9c0,0.5-0.2,0.9-0.6,1.1c-0.4,0.2-1,0.3-1.9,0.3H2.9V2.5z M2.9,11.2V7.3h7.6
		c0.8,0,1.4,0.1,1.7,0.3c0.4,0.2,0.6,0.7,0.6,1.4v2.1h1.5V8.7c0-1-0.7-1.6-2-1.8v0c1.4-0.1,2.1-0.7,2.1-1.9V4.2c0-1-0.2-1.7-0.7-2.1
		c-0.5-0.5-1.6-0.7-3.1-0.7H1.4v9.8H2.9z"/>
	<polygon class="st2" points="55.9,8.5 55.9,6.2 58.6,6.2 58.6,5.5 55.9,5.5 55.9,3.2 55,3.2 55,5.5 52.4,5.5 52.4,6.2 55,6.2 
		55,8.5 	"/>
	<path class="st3" d="M223.8,20.2c0.3,0.3,0.8,0.5,1.6,0.5h3.2c0.7,0,1.3-0.2,1.6-0.5c0.3-0.3,0.4-0.8,0.4-1.5v-1.4
		c0-0.7-0.1-1.2-0.4-1.5c-0.3-0.3-0.8-0.5-1.6-0.5h-3.2c-0.7,0-1.3,0.2-1.6,0.5c-0.3,0.3-0.4,0.8-0.4,1.5v1.4
		C223.4,19.5,223.5,19.9,223.8,20.2 M229.5,19.9c-0.2,0.1-0.5,0.2-0.9,0.2h-3.1c-0.4,0-0.7-0.1-0.9-0.2c-0.3-0.2-0.4-0.5-0.4-0.9v-2
		c0-0.4,0.1-0.7,0.4-0.9c0.2-0.1,0.5-0.2,0.9-0.2h3.1c0.4,0,0.7,0.1,0.9,0.2c0.3,0.2,0.4,0.5,0.4,0.9v2
		C229.9,19.5,229.7,19.8,229.5,19.9 M213.8,20.7v-4.6h0l3.4,4.6h0.5l3.4-4.6h0v4.6h0.8v-5.2h-1.2l-3.3,4.4l-3.3-4.4h-1.2v5.2H213.8z
		 M205.9,20.5c0.3,0.2,0.8,0.2,1.5,0.2h2.1c0.7,0,1.2-0.1,1.6-0.2c0.5-0.2,0.7-0.6,0.7-1.2V19c0-0.4-0.2-0.8-0.5-1
		c-0.3-0.2-0.9-0.3-1.6-0.3h-2.3c-0.6,0-1-0.1-1.1-0.2c-0.2-0.1-0.3-0.3-0.3-0.7c0-0.4,0.2-0.7,0.4-0.8c0.2-0.1,0.8-0.1,1.6-0.1h0.8
		c0.7,0,1.2,0,1.4,0.1c0.3,0,0.5,0.1,0.6,0.3c0.1,0.1,0.1,0.3,0.1,0.6h0.7v-0.2c0-0.5-0.2-0.8-0.5-1c-0.4-0.2-1-0.3-1.9-0.3h-1.6
		c-0.8,0-1.4,0.1-1.8,0.3c-0.4,0.2-0.6,0.6-0.6,1.2c0,0.7,0.2,1.1,0.7,1.3c0.4,0.2,1.2,0.2,2.4,0.2h1.4c0.5,0,0.8,0.1,1,0.2
		c0.2,0.1,0.3,0.3,0.3,0.7c0,0.4-0.1,0.6-0.3,0.8c-0.2,0.1-0.6,0.2-1.1,0.2h-2.4c-0.5,0-0.8-0.1-1-0.2c-0.2-0.1-0.3-0.3-0.3-0.6V19
		h-0.7v0.4C205.3,19.9,205.5,20.3,205.9,20.5 M203.9,15.5h-0.8v5.2h0.8V15.5z M196.2,16h3.5c0.5,0,0.9,0.1,1.1,0.2
		c0.2,0.1,0.3,0.3,0.3,0.6v0.5c0,0.3-0.1,0.5-0.3,0.6c-0.2,0.1-0.5,0.2-0.9,0.2h-3.7V16z M196.2,20.7v-2.1h3.7c0.4,0,0.7,0,0.8,0.2
		c0.2,0.1,0.3,0.4,0.3,0.8v1.1h0.7v-1.3c0-0.5-0.3-0.9-1-1v0c0.7-0.1,1-0.4,1-1v-0.4c0-0.5-0.1-0.9-0.3-1.1
		c-0.3-0.2-0.8-0.4-1.5-0.4h-4.5v5.2H196.2z M187.3,20.2c0.3,0.3,0.8,0.5,1.6,0.5h3.2c0.7,0,1.3-0.2,1.6-0.5
		c0.3-0.3,0.4-0.8,0.4-1.5v-1.4c0-0.7-0.1-1.2-0.4-1.5c-0.3-0.3-0.8-0.5-1.6-0.5h-3.2c-0.7,0-1.3,0.2-1.6,0.5
		c-0.3,0.3-0.4,0.8-0.4,1.5v1.4C186.8,19.5,187,19.9,187.3,20.2 M192.9,19.9c-0.2,0.1-0.5,0.2-0.9,0.2h-3.1c-0.4,0-0.7-0.1-0.9-0.2
		c-0.3-0.2-0.4-0.5-0.4-0.9v-2c0-0.4,0.1-0.7,0.4-0.9c0.2-0.1,0.5-0.2,0.9-0.2h3.1c0.4,0,0.7,0.1,0.9,0.2c0.3,0.2,0.4,0.5,0.4,0.9v2
		C193.3,19.5,193.2,19.8,192.9,19.9 M185.5,15.5h-0.8v5.2h0.8V15.5z M177.7,16h3.5c0.6,0,0.9,0.1,1.1,0.2c0.2,0.1,0.3,0.3,0.3,0.6
		v0.5c0,0.3-0.1,0.5-0.3,0.6c-0.2,0.1-0.5,0.2-0.9,0.2h-3.7V16z M177.7,20.7v-2.1h3.7c0.4,0,0.7,0,0.8,0.2c0.2,0.1,0.3,0.4,0.3,0.8
		v1.1h0.7v-1.3c0-0.5-0.3-0.9-1-1v0c0.7-0.1,1-0.4,1-1v-0.4c0-0.5-0.1-0.9-0.3-1.1c-0.3-0.2-0.8-0.4-1.5-0.4h-4.5v5.2H177.7z
		 M175.8,20.7v-0.6H171v-1.8h4.6v-0.6H171V16h4.8v-0.6h-5.5v5.2H175.8z M166.5,20.7V16h2.8v-0.6h-6.5V16h2.8v4.6H166.5z M155.8,20.7
		v-4.6l5.2,4.6h1.1v-5.2h-0.8V20l-5.2-4.6H155v5.2H155.8z M153.5,15.5h-0.8v5.2h0.8V15.5z M142.4,19l1.9-3l1.9,3H142.4z M141.4,20.7
		l0.7-1.1h4.5l0.7,1.1h0.9l-3.3-5.2h-1l-3.3,5.2H141.4z M134.2,16h3.5c0.6,0,0.9,0.1,1.1,0.2c0.2,0.1,0.3,0.3,0.3,0.6v0.5
		c0,0.3-0.1,0.5-0.3,0.6c-0.2,0.1-0.5,0.2-0.9,0.2h-3.7V16z M134.2,20.7v-2.1h3.7c0.4,0,0.7,0,0.8,0.2c0.2,0.1,0.3,0.4,0.3,0.8v1.1
		h0.7v-1.3c0-0.5-0.3-0.9-1-1v0c0.7-0.1,1-0.4,1-1v-0.4c0-0.5-0.1-0.9-0.3-1.1c-0.3-0.2-0.8-0.4-1.5-0.4h-4.5v5.2H134.2z
		 M125.8,20.4c0.3,0.2,0.8,0.3,1.5,0.3h2.6c0.7,0,1.3-0.1,1.6-0.3c0.3-0.2,0.5-0.6,0.5-1.1v-3.9h-0.8v3.9c0,0.3-0.1,0.5-0.2,0.6
		c-0.2,0.1-0.5,0.2-1,0.2h-2.6c-0.5,0-0.8-0.1-1-0.2c-0.2-0.1-0.2-0.3-0.2-0.6v-3.9h-0.8v3.9C125.3,19.9,125.5,20.2,125.8,20.4
		 M121.6,20.7V16h2.8v-0.6H118V16h2.8v4.6H121.6z M111,20.2c0.3,0.3,0.8,0.5,1.6,0.5h2.9c0.7,0,1.3-0.1,1.6-0.4
		c0.2-0.2,0.4-0.6,0.4-1.1v-0.4h-0.7v0.3c0,0.3-0.1,0.6-0.3,0.7c-0.2,0.1-0.5,0.2-1,0.2h-2.7c-0.4,0-0.7-0.1-0.9-0.2
		c-0.3-0.2-0.4-0.5-0.4-0.9v-2c0-0.4,0.1-0.7,0.4-0.9c0.2-0.1,0.5-0.2,0.9-0.2h2.6c0.4,0,0.7,0,0.9,0.1c0.3,0.1,0.4,0.4,0.4,0.8v0.2
		h0.7v-0.4c0-0.9-0.6-1.3-1.8-1.3h-2.9c-0.7,0-1.3,0.2-1.6,0.5c-0.3,0.3-0.4,0.8-0.4,1.5v1.4C110.6,19.5,110.7,19.9,111,20.2
		 M109.6,20.7v-0.6h-4.8v-1.8h4.6v-0.6h-4.6V16h4.8v-0.6H104v5.2H109.6z M100.3,20.7V16h2.8v-0.6h-6.5V16h2.8v4.6H100.3z M95.7,15.5
		H95v5.2h0.8V15.5z M87.3,20.4c0.3,0.2,0.8,0.3,1.5,0.3h2.6c0.7,0,1.3-0.1,1.6-0.3c0.3-0.2,0.5-0.6,0.5-1.1v-3.9h-0.8v3.9
		c0,0.3-0.1,0.5-0.2,0.6c-0.2,0.1-0.5,0.2-1,0.2h-2.6c-0.5,0-0.8-0.1-1-0.2c-0.2-0.1-0.2-0.3-0.2-0.6v-3.9h-0.8v3.9
		C86.8,19.9,87,20.2,87.3,20.4 M82.6,18l-0.3,0.5l2.3,1.3c-0.1,0.1-0.2,0.2-0.4,0.3c-0.2,0.1-0.4,0.1-0.7,0.1h-3.1
		c-0.4,0-0.7-0.1-0.9-0.2C79.1,19.8,79,19.5,79,19v-2c0-0.4,0.1-0.7,0.4-0.9c0.2-0.1,0.5-0.2,0.9-0.2h3.1c0.4,0,0.7,0.1,0.9,0.2
		c0.3,0.2,0.4,0.5,0.4,0.9v2.1L82.6,18z M86,19.9l-0.6-0.3c0.1-0.2,0.1-0.5,0.1-0.8v-1.4c0-0.7-0.1-1.2-0.4-1.5
		c-0.3-0.3-0.8-0.5-1.6-0.5h-3.2c-0.7,0-1.3,0.2-1.6,0.5c-0.3,0.3-0.4,0.8-0.4,1.5v1.4c0,0.7,0.1,1.2,0.4,1.5
		c0.3,0.3,0.8,0.5,1.6,0.5h3.2c0.8,0,1.3-0.2,1.6-0.6l0.5,0.3L86,19.9z M71.4,16h3.5c0.5,0,0.9,0.1,1.1,0.2c0.2,0.1,0.3,0.3,0.3,0.6
		v0.5c0,0.3-0.1,0.5-0.3,0.6C75.8,18,75.5,18,75.1,18h-3.7V16z M71.4,20.7v-2.1h3.7c0.4,0,0.7,0,0.8,0.2c0.2,0.1,0.3,0.4,0.3,0.8
		v1.1H77v-1.3c0-0.5-0.3-0.9-1-1v0c0.7-0.1,1-0.4,1-1v-0.4c0-0.5-0.1-0.9-0.3-1.1c-0.3-0.2-0.8-0.4-1.5-0.4h-4.5v5.2H71.4z M64.1,19
		l1.9-3l1.9,3H64.1z M63,20.7l0.7-1.1h4.5l0.7,1.1h0.9l-3.3-5.2h-1l-3.3,5.2H63z"/>
</g>
</svg>
