<?xml version="1.0" standalone="no"?>
<!DOCTYPE svg PUBLIC "-//W3C//DTD SVG 20010904//EN"
 "http://www.w3.org/TR/2001/REC-SVG-20010904/DTD/svg10.dtd">
<svg version="1.0" xmlns="http://www.w3.org/2000/svg"
 width="260.000000pt" height="260.000000pt" viewBox="0 0 260.000000 260.000000"
 preserveAspectRatio="xMidYMid meet">
<metadata>
Created by potrace 1.11, written by Peter Selinger 2001-2013
</metadata>
<g transform="translate(0.000000,260.000000) scale(0.100000,-0.100000)"
fill="#000000" stroke="none">
<path d="M939 2176 c-2 -2 -49 -7 -104 -10 -227 -16 -308 -51 -451 -191 -100
-99 -169 -205 -206 -315 -22 -63 -22 -79 -25 -653 l-4 -588 160 4 c88 2 163 6
167 9 3 4 6 244 6 534 0 579 -1 571 64 682 58 99 180 178 318 206 94 19 426
22 427 4 0 -7 2 -204 3 -438 3 -422 5 -453 33 -540 63 -196 254 -368 458 -413
62 -14 98 -19 230 -33 17 -1 121 -6 233 -9 l202 -6 0 558 c0 602 -3 637 -54
749 -82 178 -248 345 -400 400 -60 22 -95 28 -206 40 -51 6 -846 15 -851 10z
m768 -310 c66 -7 172 -47 236 -88 76 -49 141 -141 171 -242 8 -29 12 -155 11
-426 l0 -385 -79 2 c-126 4 -214 44 -314 143 -52 52 -87 107 -103 164 -10 33
-14 820 -5 835 4 6 12 8 19 6 7 -2 36 -6 64 -9z"/>
</g>
</svg>
